#!OML:ASF H:\Male1\Project 1\Capture day 1\Session 1\Male1.ASF
:FULLY-SPECIFIED
:DEGREES
421
root -14.1996 14.7519 0.599474 1119.43 86.1595 -678.794
lowerback 6.92896 0.391696 -5.09335
upperback 5.039 0.450609 -2.15368
thorax 1.31737 0.209141 0.609552
lowerneck -7.90438 4.05517 7.9891
upperneck 18.0602 5.20825 -3.17965
head 7.12441 2.86288 -1.89092
rclavicle 8.54774e-015 -2.38542e-015
rhumerus -31.5969 1.17757 -92.013
rradius 31.9719
rwrist -17.2333
rhand -17.0852 1.62567
rfingers 7.12502
rthumb 9.15314 -28.1557
lclavicle 8.54774e-015 -2.38542e-015
lhumerus -24.412 -15.7158 90.2009
lradius 38.382
lwrist 4.01597
lhand -19.0731 13.2395
lfingers 7.12502
lthumb 7.23455 43.0958
rfemur -33.0721 10.3811 21.05
rtibia 43.8997
rfoot -25.1304 -23.4446
rtoes -25.6359
lfemur 7.12961 -10.3951 -31.362
ltibia 23.2968
lfoot -27.8979 18.2562
ltoes -7.06756
422
root -13.9715 14.7473 0.613066 1120.89 86.1764 -677.267
lowerback 6.86881 0.443046 -5.12647
upperback 5.07285 0.523809 -2.12526
thorax 1.38222 0.243075 0.653686
lowerneck -8.03578 3.98454 7.92129
upperneck 18.2041 5.09202 -3.0502
head 7.18252 2.81508 -1.84544
rclavicle 7.95139e-015 1.19271e-014
rhumerus -31.8468 0.788912 -91.8623
rradius 32.2616
rwrist -17.4854
rhand -17.2186 0.961252
rfingers 7.12502
rthumb 9.02439 -28.8257
lclavicle 7.95139e-015 1.19271e-014
lhumerus -24.2419 -16.634 90.4221
lradius 39.3759
lwrist 4.4553
lhand -18.8065 13.6327
lfingers 7.12502
lthumb 7.4919 43.48
rfemur -33.3518 12.0558 20.3947
rtibia 41.302
rfoot -25.7307 -24.7907
rtoes -23.5702
lfemur 8.99633 -10.2337 -31.6366
ltibia 21.6922
lfoot -27.2747 18.4252
ltoes -6.88928
423
root -13.7474 14.742 0.629208 1123.43 86.2832 -674.629
lowerback 6.8796 0.476157 -5.13003
upperback 5.10993 0.569427 -2.06659
thorax 1.41209 0.264232 0.713618
lowerneck -8.21734 3.89324 7.78628
upperneck 18.3951 4.9461 -2.8737
head 7.26046 2.75316 -1.77539
rclavicle -6.95746e-015 -1.59028e-015
rhumerus -32.0614 0.513156 -91.6776
rradius 32.4573
rwrist -17.7696
rhand -17.2384 0.444612
rfingers 7.12502
rthumb 9.00534 -29.3432
lclavicle -6.95746e-015 -1.59028e-015
lhumerus -24.1198 -17.2958 90.6486
lradius 40.234
lwrist 4.70808
lhand -18.9088 13.5189
lfingers 7.12502
lthumb 7.39321 43.3697
rfemur -33.4051 13.5945 19.7456
rtibia 39.2236
rfoot -27.4746 -25.3412
rtoes -19.2479
lfemur 10.833 -10.1081 -31.8796
ltibia 20.1798
lfoot -26.5843 18.631
ltoes -6.97719
424
root -13.5118 14.7263 0.645857 1122.11 86.3109 -675.803
lowerback 6.80501 0.588616 -4.91641
upperback 5.17842 0.73853 -2.02064
thorax 1.51639 0.35103 0.63354
lowerneck -8.26244 3.82702 7.91333
upperneck 18.4257 4.85999 -3.01777
head 7.28014 2.70878 -1.85039
rclavicle 1.11319e-014 -7.95139e-016
rhumerus -32.1913 0.146826 -91.4993
rradius 32.3705
rwrist -17.8384
rhand -17.1595 0.459642
rfingers 7.12502
rthumb 9.08146 -29.3249
lclavicle 1.11319e-014 -7.95139e-016
lhumerus -24.0628 -17.8971 90.7901
lradius 40.9231
lwrist 4.88938
lhand -19.9725 12.8708
lfingers 7.12502
lthumb 6.3664 42.7551
rfemur -33.4629 15.285 19.255
rtibia 37.6665
rfoot -29.1084 -26.0956
rtoes -17.0183
lfemur 12.684 -9.73067 -31.9737
ltibia 18.8554
lfoot -25.978 18.8227
ltoes -7.63046
425
root -13.2753 14.715 0.665931 1122.38 86.469 -675.363
lowerback 6.79376 0.631607 -4.64993
upperback 5.21387 0.810753 -1.97469
thorax 1.55668 0.39231 0.528698
lowerneck -8.27486 3.73492 8.01598
upperneck 18.475 4.7471 -3.16439
head 7.29752 2.65092 -1.92545
rclavicle 4.77083e-015 -2.14687e-014
rhumerus -32.3523 -0.201606 -91.3618
rradius 32.2576
rwrist -17.7434
rhand -17.1046 0.351139
rfingers 7.12502
rthumb 9.13446 -29.431
lclavicle 4.77083e-015 -2.14687e-014
lhumerus -24.0753 -18.3604 90.8885
lradius 41.3991
lwrist 5.05509
lhand -20.6498 12.3927
lfingers 7.12502
lthumb 5.7125 42.2957
rfemur -33.2974 16.8115 18.8595
rtibia 36.6767
rfoot -30.3986 -27.3453
rtoes -16.9673
lfemur 14.3433 -9.36428 -31.9569
ltibia 17.9071
lfoot -25.3114 18.8198
ltoes -8.57478
426
root -13.037 14.7088 0.68782 1124.5 86.6976 -673.219
lowerback 6.60234 0.574814 -4.42516
upperback 5.24036 0.755785 -1.88509
thorax 1.69214 0.365438 0.500938
lowerneck -8.3599 3.69921 7.96426
upperneck 18.6043 4.71403 -3.21431
head 7.35221 2.62927 -1.93471
rclavicle 6.95746e-016 -1.63003e-014
rhumerus -32.4849 -0.336865 -91.2202
rradius 32.2058
rwrist -17.6757
rhand -16.9847 0.236503
rfingers 7.12502
rthumb 9.25015 -29.5406
lclavicle 6.95746e-016 -1.63003e-014
lhumerus -24.0097 -18.4429 90.9475
lradius 41.5879
lwrist 5.12633
lhand -20.5223 12.1557
lfingers 7.12502
lthumb 5.8356 42.0554
rfemur -33.0834 18.0969 18.5068
rtibia 36.1976
rfoot -31.5558 -28.6495
rtoes -14.8211
lfemur 15.6077 -9.09249 -31.8442
ltibia 17.3653
lfoot -24.5681 18.5219
ltoes -9.21657
427
root -12.7988 14.688 0.710148 1128.82 86.8286 -668.973
lowerback 6.28321 0.503195 -4.29669
upperback 5.25903 0.683092 -1.83994
thorax 1.89117 0.326889 0.482736
lowerneck -8.42642 3.71529 7.99803
upperneck 18.7225 4.74969 -3.31283
head 7.40771 2.64193 -1.96775
rclavicle -1.0635e-014 -5.96354e-015
rhumerus -32.5014 -0.522429 -91.0395
rradius 31.9878
rwrist -17.5609
rhand -16.9661 0.290859
rfingers 7.12502
rthumb 9.26806 -29.4854
lclavicle -1.0635e-014 -5.96354e-015
lhumerus -23.9857 -18.3665 90.9284
lradius 41.6077
lwrist 5.06748
lhand -20.5105 12.2189
lfingers 7.12502
lthumb 5.84692 42.1183
rfemur -32.7272 18.2926 18.4085
rtibia 36.1513
rfoot -31.2523 -28.9678
rtoes -14.6104
lfemur 16.4789 -8.7437 -31.7581
ltibia 17.281
lfoot -23.6679 18.0038
ltoes -10.5007
428
root -12.5593 14.6708 0.732699 1134.7 86.9746 -663.151
lowerback 6.05135 0.427836 -4.1062
upperback 5.23329 0.599187 -1.81602
thorax 1.99632 0.286793 0.406863
lowerneck -8.52205 3.73335 8.06323
upperneck 18.9623 4.78143 -3.37741
head 7.50846 2.66054 -1.99444
rclavicle 9.93923e-016 1.03368e-014
rhumerus -32.597 -0.90118 -90.8049
rradius 31.7776
rwrist -17.3037
rhand -17.018 0.239971
rfingers 7.12502
rthumb 9.21798 -29.5385
lclavicle 9.93923e-016 1.03368e-014
lhumerus -24.197 -18.259 90.9109
lradius 41.5453
lwrist 4.85551
lhand -20.5901 12.404
lfingers 7.12502
lthumb 5.77009 42.3054
rfemur -32.0134 17.2814 18.7477
rtibia 36.438
rfoot -30.3419 -28.5561
rtoes -13.2284
lfemur 17.116 -8.30477 -31.5651
ltibia 17.6673
lfoot -22.6916 17.292
ltoes -12.3371
429
root -12.3139 14.6557 0.75552 1138.76 87.2717 -659.046
lowerback 5.94817 0.339723 -3.73875
upperback 5.20221 0.493304 -1.66484
thorax 2.02374 0.239129 0.362587
lowerneck -8.56993 3.76486 8.06291
upperneck 19.1811 4.86134 -3.51696
head 7.59651 2.69123 -2.03131
rclavicle -3.27995e-015 -2.14687e-014
rhumerus -32.7636 -1.33176 -90.4231
rradius 31.6003
rwrist -16.9794
rhand -16.9522 0.122011
rfingers 7.12502
rthumb 9.28144 -29.6537
lclavicle -3.27995e-015 -2.14687e-014
lhumerus -24.6343 -17.859 90.9591
lradius 41.5067
lwrist 4.55416
lhand -20.2108 12.5879
lfingers 7.12502
lthumb 6.13633 42.4791
rfemur -31.1234 16.002 19.4991
rtibia 36.859
rfoot -28.961 -28.6482
rtoes -14.4501
lfemur 17.5842 -7.89818 -31.1138
ltibia 18.6694
lfoot -21.8456 16.4151
ltoes -14.0126
430
root -12.0613 14.6505 0.782381 1140.97 87.5459 -656.755
lowerback 5.83549 0.25968 -3.40438
upperback 5.18246 0.395693 -1.44745
thorax 2.06705 0.193014 0.404198
lowerneck -8.47781 3.80392 8.10685
upperneck 19.2689 4.99464 -3.87144
head 7.62575 2.7309 -2.14389
rclavicle 4.87022e-015 4.37326e-015
rhumerus -32.8638 -1.64872 -90.0003
rradius 31.279
rwrist -16.7625
rhand -16.9386 0.179872
rfingers 7.12502
rthumb 9.29456 -29.5952
lclavicle 4.87022e-015 4.37326e-015
lhumerus -25.1502 -17.1578 90.9876
lradius 41.4194
lwrist 4.22758
lhand -19.5146 13.0043
lfingers 7.12502
lthumb 6.8084 42.8748
rfemur -30.2664 15.0338 20.2718
rtibia 37.3357
rfoot -27.632 -29.0913
rtoes -16.7545
lfemur 17.7541 -7.54198 -30.6025
ltibia 20.2941
lfoot -20.9122 15.5248
ltoes -15.7435
431
root -11.8094 14.6501 0.808932 1142.1 87.8228 -655.419
lowerback 5.93639 0.18616 -2.96754
upperback 5.17895 0.305286 -1.27734
thorax 2.00851 0.157086 0.338177
lowerneck -8.51803 3.83369 8.19463
upperneck 19.5136 5.09012 -4.14903
head 7.72834 2.76338 -2.23985
rclavicle 4.02539e-015 5.56597e-015
rhumerus -32.9309 -2.04687 -89.6463
rradius 30.8905
rwrist -16.524
rhand -17.0297 0.617795
rfingers 7.12502
rthumb 9.20666 -29.1612
lclavicle 4.02539e-015 5.56597e-015
lhumerus -25.5178 -16.5464 90.9276
lradius 40.8439
lwrist 3.93968
lhand -19.1966 13.2473
lfingers 7.12502
lthumb 7.11534 43.1077
rfemur -29.3027 14.3544 20.9593
rtibia 37.6712
rfoot -26.4916 -28.5371
rtoes -17.5582
lfemur 17.5606 -7.09936 -30.018
ltibia 22.7525
lfoot -19.7877 14.5718
ltoes -17.708
432
root -11.5612 14.6557 0.824827 1139.81 88.2557 -657.744
lowerback 5.89059 0.0819336 -2.11868
upperback 5.08895 0.189021 -1.1266
thorax 1.9411 0.118216 0.0231293
lowerneck -8.70348 3.88252 8.2206
upperneck 19.9572 5.18137 -4.22751
head 7.91729 2.80818 -2.25765
rclavicle -2.5842e-015 -2.98177e-015
rhumerus -32.9555 -2.39187 -89.356
rradius 30.5573
rwrist -16.3892
rhand -17.1291 0.628506
rfingers 7.12502
rthumb 9.1108 -29.1547
lclavicle -2.5842e-015 -2.98177e-015
lhumerus -25.7955 -15.8547 90.7736
lradius 39.3317
lwrist 2.82394
lhand -20.0409 10.7329
lfingers 7.12502
lthumb 6.30035 40.6192
rfemur -28.5423 12.8845 21.8327
rtibia 37.9243
rfoot -24.8174 -26.4263
rtoes -18.1217
lfemur 16.7069 -6.39502 -29.0631
ltibia 25.9062
lfoot -18.371 13.3245
ltoes -19.908
433
root -11.3071 14.674 0.85271 1111.97 88.7513 -685.728
lowerback 5.65051 0.064837 -1.06817
upperback 5.0043 0.195785 -0.818065
thorax 1.98493 0.141293 -0.247609
lowerneck -8.81325 3.964 8.16936
upperneck 20.3523 5.31841 -4.21793
head 8.07623 2.87711 -2.22976
rclavicle -3.97569e-016 -8.94531e-015
rhumerus -32.9975 -2.39447 -89.158
rradius 30.4008
rwrist -16.5787
rhand -17.1795 0.238665
rfingers 7.12502
rthumb 9.06215 -29.5467
lclavicle -3.97569e-016 -8.94531e-015
lhumerus -26.1099 -15.0392 90.5903
lradius 38.3517
lwrist 2.59417
lhand -20.0486 11.2091
lfingers 7.12502
lthumb 6.2929 41.0957
rfemur -27.7468 11.8725 23.1831
rtibia 38.0968
rfoot -23.7876 -24.6247
rtoes -17.7068
lfemur 15.1288 -5.31745 -27.3958
ltibia 29.7961
lfoot -16.6578 11.5848
ltoes -20.456
